<svg version="1.1" xmlns="http://www.w3.org/2000/svg" xmlns:xlink="http://www.w3.org/1999/xlink" width="48px" height="48px" viewBox="0,0,256,256"><g fill="none" fill-rule="nonzero" stroke="none" stroke-width="1" stroke-linecap="butt" stroke-linejoin="miter" stroke-miterlimit="10" stroke-dasharray="" stroke-dashoffset="0" font-family="none" font-weight="none" font-size="none" text-anchor="none" style="mix-blend-mode: normal"><g transform="scale(5.33333,5.33333)"><path d="M28.5,6h-9c-0.828,0 -1.5,0.672 -1.5,1.5v1.5h12v-1.5c0,-0.828 -0.672,-1.5 -1.5,-1.5z" fill="#056cd6"></path><path d="M42,41h-36c-1.1,0 -2,-0.9 -2,-2v-26c0,-2.2 1.8,-4 4,-4h32c2.2,0 4,1.8 4,4v26c0,1.1 -0.9,2 -2,2z" fill="#056cd6"></path><path d="M42.297,25.255l-18.297,2.745l-18.297,-2.745c-0.979,-0.146 -1.703,-0.987 -1.703,-1.977v-10.278c0,-2.2 1.8,-4 4,-4h32c2.2,0 4,1.8 4,4v10.278c0,0.99 -0.724,1.831 -1.703,1.977z" fill="#003aff"></path><path d="M20,20c0,-2.209 1.791,-4 4,-4c2.209,0 4,1.791 4,4c0,2.209 -1.791,4 -4,4c-2.209,0 -4,-1.791 -4,-4zM24,26c-3.866,0 -7,3.134 -7,7v0.6c0,0.773 0.627,1.4 1.4,1.4h11.2c0.773,0 1.4,-0.627 1.4,-1.4v-0.6c0,-3.866 -3.134,-7 -7,-7z" fill="#e0efff"></path></g></g></svg>
