<?xml version="1.0" standalone="no"?>
<!DOCTYPE svg PUBLIC "-//W3C//DTD SVG 20010904//EN"
 "http://www.w3.org/TR/2001/REC-SVG-20010904/DTD/svg10.dtd">
<svg version="1.0" xmlns="http://www.w3.org/2000/svg"
 width="624.000000pt" height="624.000000pt" viewBox="0 0 624.000000 624.000000"
 preserveAspectRatio="xMidYMid meet">
<metadata>
Created by potrace 1.14, written by Peter Selinger 2001-2017
</metadata>
<g transform="translate(0.000000,624.000000) scale(0.100000,-0.100000)"
fill="#000000" stroke="none">
<path d="M3590 6057 c0 -10 -6 -14 -15 -11 -10 4 -15 0 -15 -12 0 -16 -2 -17
-10 -4 -8 12 -10 12 -10 1 0 -8 -7 -11 -20 -8 -11 3 -20 2 -20 -1 0 -4 -16 -8
-36 -9 -19 -1 -42 -7 -50 -14 -8 -6 -14 -7 -14 -2 0 15 -51 2 -57 -14 -5 -12
-7 -12 -14 -1 -7 10 -9 8 -9 -6 0 -15 -3 -16 -15 -6 -13 11 -14 10 -10 -2 5
-14 -24 -32 -46 -29 -4 0 -5 -9 -2 -19 3 -12 0 -20 -6 -20 -7 0 -9 5 -5 13 6
9 3 8 -8 -1 -9 -8 -15 -19 -12 -27 3 -7 0 -16 -7 -21 -7 -4 -10 -3 -6 3 3 5 0
10 -8 10 -8 0 -12 -4 -10 -8 3 -4 2 -15 -1 -24 -5 -13 -8 -14 -15 -3 -6 9 -9
6 -9 -12 0 -20 -2 -22 -11 -10 -9 12 -10 11 -6 -7 4 -18 1 -23 -16 -24 -12 0
-16 -3 -9 -6 16 -6 16 -24 0 -21 -7 2 -13 -4 -13 -12 -1 -21 -23 -70 -31 -70
-3 0 -3 8 0 18 4 11 0 8 -12 -7 -16 -20 -22 -22 -40 -12 -17 9 -21 9 -16 -2 4
-10 -6 -13 -37 -13 -22 1 -43 -2 -46 -6 -2 -5 -13 -8 -24 -8 -11 0 -18 -4 -15
-9 4 -5 -3 -7 -14 -4 -11 3 -20 1 -20 -5 0 -6 -9 -8 -20 -5 -12 3 -22 -1 -26
-11 -3 -9 -10 -13 -15 -10 -5 3 -12 -1 -15 -10 -3 -8 -12 -12 -20 -9 -19 7
-46 -16 -40 -33 3 -8 2 -13 -2 -13 -4 1 -16 0 -27 -1 -13 -1 -15 -3 -6 -7 10
-4 10 -7 1 -13 -27 -16 -27 -114 -1 -156 12 -19 12 -19 7 1 -5 17 -3 16 13 -5
17 -20 17 -26 5 -28 -8 -2 -12 -8 -8 -13 3 -5 9 -7 13 -5 3 3 7 -4 7 -14 0
-15 -4 -17 -19 -8 -15 8 -18 7 -12 -3 6 -9 3 -11 -8 -6 -12 4 -14 2 -10 -11 6
-15 5 -15 -11 -3 -15 12 -17 12 -14 0 2 -8 -4 -13 -14 -13 -10 1 -18 -4 -18
-12 0 -10 -6 -11 -25 -4 -19 7 -23 6 -18 -6 3 -9 0 -12 -9 -9 -8 3 -21 -1 -28
-9 -7 -9 -16 -13 -21 -10 -5 3 -9 1 -9 -4 0 -6 -7 -13 -16 -16 -8 -3 -12 -2
-9 4 3 6 1 10 -4 10 -6 0 -11 -10 -11 -21 0 -18 -2 -19 -15 -9 -9 7 -15 8 -15
2 0 -10 -46 -27 -66 -23 -7 1 -14 -8 -17 -19 -3 -11 -11 -20 -19 -20 -10 0 -9
3 2 10 8 5 10 10 4 10 -6 0 -18 -9 -25 -21 -8 -11 -23 -22 -34 -23 -11 -2 -19
-9 -17 -17 3 -10 0 -10 -12 1 -9 7 -17 10 -17 6 -1 -3 -3 -10 -4 -16 -1 -5 -3
-15 -4 -21 0 -5 -6 -7 -11 -4 -6 4 -7 12 -3 18 4 7 -2 5 -13 -3 -35 -28 -43
-38 -36 -46 4 -5 -1 -2 -10 5 -16 12 -18 11 -18 -4 0 -11 -5 -15 -16 -11 -9 3
-12 2 -9 -5 4 -6 -2 -13 -14 -16 -12 -3 -18 -10 -14 -17 4 -6 -2 -4 -13 4 -10
8 -16 10 -12 6 4 -5 2 -16 -5 -24 -9 -13 -9 -14 1 -8 20 12 14 -8 -8 -24 -14
-10 -17 -17 -8 -27 10 -13 9 -14 -14 -17 -6 0 -13 -7 -16 -15 -3 -9 0 -11 9
-6 11 6 12 5 2 -6 -7 -7 -13 -26 -13 -41 0 -20 -5 -28 -17 -28 -15 0 -14 -2 3
-15 14 -11 15 -14 3 -9 -10 3 -20 0 -25 -7 -5 -8 -3 -10 7 -5 8 4 6 1 -4 -7
-10 -8 -13 -17 -8 -18 7 -3 6 -14 -4 -32 -8 -15 -10 -25 -5 -22 6 4 10 -1 10
-10 0 -9 -4 -13 -10 -10 -6 4 -10 -5 -10 -20 0 -15 -4 -24 -10 -20 -6 3 -7 -1
-4 -9 3 -9 1 -16 -5 -16 -7 0 -8 -8 -1 -25 7 -18 5 -28 -5 -39 -9 -9 -11 -16
-4 -18 7 -2 5 -13 -4 -31 -8 -14 -18 -23 -23 -19 -4 4 -2 -1 5 -10 7 -10 9
-18 3 -18 -14 0 -21 -48 -8 -54 6 -2 4 -5 -4 -5 -10 -1 -16 -14 -18 -43 -1
-23 -7 -48 -13 -55 -6 -6 -8 -17 -4 -23 4 -6 2 -17 -5 -25 -8 -9 -8 -15 0 -20
8 -5 6 -15 -5 -32 -10 -14 -12 -22 -6 -19 6 4 11 2 11 -3 0 -6 -4 -11 -8 -11
-4 0 -9 -17 -10 -37 -2 -20 -8 -44 -15 -52 -7 -8 -7 -12 -1 -8 6 3 11 0 11 -8
0 -8 -4 -12 -8 -9 -4 2 -10 0 -14 -6 -3 -5 -1 -10 5 -10 7 0 8 -6 1 -18 -6
-11 -6 -24 0 -35 7 -12 6 -17 -2 -17 -9 0 -9 -3 0 -14 8 -10 9 -16 1 -21 -7
-4 -7 -12 0 -24 5 -10 6 -22 2 -25 -10 -11 -8 -40 3 -48 6 -4 2 -8 -8 -8 -12
0 -16 -4 -11 -12 6 -9 3 -9 -9 0 -14 12 -16 11 -12 -7 3 -15 0 -18 -13 -14
-15 6 -16 5 -2 -12 9 -11 10 -16 3 -11 -8 4 -13 2 -13 -6 0 -9 -3 -9 -10 2 -8
13 -10 12 -10 -2 0 -10 -5 -18 -10 -18 -6 0 -9 -6 -8 -12 2 -8 -5 -12 -16 -10
-12 2 -16 -1 -10 -9 5 -9 1 -11 -13 -7 -16 4 -19 2 -16 -13 6 -21 -12 -26 -20
-6 -4 9 -6 9 -6 -1 -1 -7 -5 -11 -10 -7 -5 3 -13 0 -17 -6 -4 -7 -3 -9 4 -5 6
3 13 2 17 -4 6 -9 -8 -14 -28 -11 -4 1 -10 -5 -13 -13 -3 -9 -12 -12 -22 -8
-15 5 -16 4 -2 -13 8 -10 10 -16 3 -12 -6 4 -15 2 -18 -4 -4 -5 -13 -8 -21 -5
-9 3 -14 -1 -14 -13 0 -10 -7 -22 -16 -25 -14 -5 -15 -4 -4 9 8 9 8 15 2 15
-6 0 -13 -9 -17 -19 -4 -12 -12 -18 -21 -14 -8 3 -14 -1 -14 -10 0 -9 -5 -19
-12 -23 -7 -5 -9 -2 -4 7 4 8 1 6 -8 -5 -8 -10 -22 -16 -31 -13 -8 4 -15 2
-15 -3 0 -6 -9 -10 -20 -10 -11 0 -20 -5 -20 -11 0 -5 5 -7 12 -3 7 4 8 3 4
-4 -4 -6 -13 -9 -20 -6 -7 3 -20 -1 -28 -9 -9 -10 -20 -12 -30 -6 -12 7 -15 4
-14 -9 1 -11 -5 -16 -16 -14 -10 2 -18 -1 -18 -5 0 -4 -16 -8 -36 -9 -20 0
-40 -7 -45 -15 -5 -8 -9 -10 -9 -5 0 5 -7 3 -15 -4 -12 -10 -13 -16 -3 -28 11
-13 10 -15 -2 -10 -17 6 -34 -9 -36 -32 -1 -8 -3 -19 -5 -25 -2 -5 0 -34 4
-64 6 -41 13 -54 27 -58 11 -3 20 -11 20 -19 0 -7 4 -16 10 -19 6 -4 7 1 4 12
-5 14 -4 15 4 4 6 -8 8 -20 5 -28 -3 -7 -1 -13 4 -13 5 0 6 -27 3 -60 -3 -33
-2 -60 3 -60 5 0 7 -12 4 -26 -3 -15 0 -28 8 -30 7 -3 12 -16 11 -29 -2 -17 1
-22 12 -17 10 3 13 1 8 -6 -4 -7 -2 -12 6 -12 9 0 9 -3 -2 -10 -12 -7 -12 -10
-1 -10 7 0 11 -6 8 -14 -3 -8 2 -17 11 -21 14 -5 14 -7 2 -15 -8 -6 -10 -10
-4 -10 6 0 11 -7 12 -15 1 -8 3 -22 4 -30 1 -8 5 -15 10 -15 5 0 7 -4 3 -9 -3
-5 1 -16 9 -24 8 -8 12 -17 9 -21 -4 -3 -1 -6 6 -6 7 0 10 -4 6 -9 -3 -5 -1
-12 5 -16 6 -4 8 -11 5 -16 -3 -5 1 -6 10 -3 11 5 14 2 9 -10 -5 -12 0 -19 14
-23 13 -3 19 -11 17 -23 -3 -14 1 -17 13 -13 15 6 15 5 3 -10 -12 -15 -12 -17
2 -11 9 3 24 -1 32 -10 9 -9 13 -16 8 -16 -5 0 -15 6 -22 12 -7 7 -3 -4 9 -25
12 -20 18 -37 13 -37 -4 0 -8 -20 -8 -45 0 -25 4 -45 9 -45 4 0 6 -9 3 -19 -3
-14 -1 -18 9 -14 14 5 20 -12 7 -20 -5 -2 -2 -2 6 0 9 2 11 -2 7 -13 -5 -14
-4 -15 8 -5 10 8 16 9 21 1 3 -5 1 -10 -5 -10 -6 0 -8 -5 -5 -10 5 -8 12 -7
23 2 13 11 15 11 9 -4 -3 -10 1 -22 11 -30 13 -11 15 -11 7 2 -8 13 -7 13 8 1
9 -7 25 -11 35 -9 11 3 30 -1 43 -8 13 -7 18 -13 12 -14 -7 0 -12 -3 -12 -7 3
-20 -2 -31 -18 -37 -15 -6 -15 -4 2 14 10 11 13 20 8 20 -12 0 -27 -29 -24
-47 1 -6 -4 -15 -10 -19 -7 -4 -9 -3 -6 3 3 5 0 10 -8 10 -8 0 -12 -4 -9 -9 3
-4 1 -8 -5 -8 -6 0 -7 -8 -4 -17 5 -13 2 -15 -11 -10 -14 6 -17 3 -12 -9 4
-11 2 -15 -8 -11 -18 7 -40 -18 -31 -33 4 -7 0 -10 -10 -8 -11 2 -19 -4 -20
-15 -2 -9 1 -14 7 -11 6 4 2 -5 -7 -20 -15 -23 -15 -26 -2 -32 9 -3 13 -12 10
-21 -4 -11 -2 -14 5 -9 7 4 12 2 12 -4 0 -6 5 -8 10 -5 6 3 13 -1 16 -10 6
-13 8 -14 15 -3 5 7 9 8 9 3 0 -6 14 -12 32 -13 18 -2 35 -6 38 -10 8 -10 30
-13 30 -4 0 9 110 -11 129 -22 6 -4 11 -2 11 4 0 6 5 8 11 5 18 -12 59 -13 59
-1 0 7 4 6 9 -2 4 -7 32 -15 62 -18 30 -3 60 -7 66 -9 7 -3 13 0 13 6 0 6 7 6
20 -1 14 -8 20 -8 20 0 0 8 6 8 20 0 14 -8 20 -8 20 0 0 8 6 8 20 0 14 -8 20
-8 20 0 0 8 6 8 20 0 14 -8 20 -8 20 0 0 8 6 8 20 0 14 -8 20 -8 20 0 0 8 6 8
20 0 14 -8 20 -8 20 0 0 8 6 8 20 0 11 -6 20 -7 20 -2 0 10 43 10 50 0 3 -4
17 -8 30 -10 14 -2 31 -7 38 -11 6 -5 12 -4 12 2 0 10 19 9 38 -2 7 -5 12 -3
12 4 0 8 4 8 13 2 6 -6 22 -9 34 -8 15 1 19 -3 15 -13 -3 -9 -1 -13 5 -9 7 5
10 -2 8 -18 -1 -14 2 -25 7 -25 5 0 4 -9 -2 -20 -8 -14 -8 -20 0 -20 6 0 8 -5
5 -10 -4 -6 -10 -8 -15 -5 -4 3 -6 -5 -2 -17 4 -16 2 -20 -10 -16 -8 4 -15 0
-15 -8 0 -7 3 -11 7 -9 4 2 7 -2 7 -10 0 -8 -4 -12 -8 -9 -4 2 -10 -2 -12 -8
-4 -10 -6 -10 -6 0 -1 6 -5 12 -11 12 -5 0 -7 -7 -3 -15 3 -10 0 -15 -8 -13
-7 2 -14 -3 -15 -9 -1 -7 -2 -18 -3 -24 0 -5 -4 -8 -8 -6 -9 6 -8 -107 1 -121
4 -6 2 -13 -4 -17 -6 -4 -8 -11 -5 -16 4 -5 -1 -16 -9 -25 -9 -8 -16 -22 -16
-30 0 -8 -4 -13 -9 -10 -4 3 -6 -6 -3 -21 4 -22 2 -25 -12 -20 -10 4 -22 7
-27 7 -6 0 -8 4 -5 9 3 5 -1 12 -10 15 -10 4 -13 2 -8 -6 5 -7 3 -8 -5 -4 -7
5 -10 14 -7 22 3 8 1 14 -4 14 -5 0 -15 6 -22 12 -7 7 -26 19 -43 27 -16 7
-38 17 -47 22 -10 5 -20 5 -23 -1 -4 -7 -13 -6 -25 0 -16 9 -18 8 -13 -7 5
-12 2 -15 -10 -10 -9 3 -17 2 -17 -4 0 -6 -4 -8 -9 -4 -5 3 -16 -1 -24 -9 -8
-8 -18 -12 -22 -8 -5 4 -5 -2 -1 -12 5 -15 4 -17 -7 -8 -18 15 -30 3 -16 -14
8 -10 6 -12 -10 -9 -12 2 -20 -1 -18 -8 1 -7 -6 -11 -15 -11 -10 1 -16 -3 -15
-10 1 -6 -3 -10 -9 -9 -6 1 -11 -5 -11 -13 0 -11 4 -11 20 3 21 18 21 18 1 -8
-10 -15 -22 -25 -25 -23 -6 4 -22 -33 -20 -47 0 -4 -7 -6 -17 -5 -9 0 -16 -4
-15 -9 1 -6 -11 -11 -25 -11 -15 -1 -38 -4 -52 -7 -14 -2 -30 0 -37 5 -7 6
-19 5 -32 -2 -15 -7 -27 -8 -40 0 -14 7 -22 7 -26 0 -4 -6 -11 -7 -18 -3 -14
9 -57 11 -62 3 -2 -4 -18 -5 -35 -4 -20 1 -35 -4 -44 -17 -7 -10 -16 -16 -19
-12 -4 3 -7 1 -7 -6 0 -9 -5 -9 -20 -1 -12 7 -20 7 -20 1 0 -5 -12 -4 -27 4
-15 8 -31 11 -36 8 -6 -3 -7 -1 -3 5 4 7 0 13 -11 14 -32 2 -38 3 -48 10 -5 3
-19 2 -30 -2 -12 -4 -29 -1 -45 9 -20 13 -23 14 -15 1 7 -12 6 -13 -6 -3 -16
13 -129 22 -129 10 0 -4 -9 -3 -20 3 -11 6 -20 7 -20 3 0 -4 -29 -7 -64 -5
-37 2 -74 -1 -86 -8 -13 -7 -20 -8 -16 -2 3 6 1 14 -5 18 -7 4 -9 3 -6 -3 10
-16 -23 -38 -51 -35 -15 3 -22 0 -18 -7 5 -7 1 -8 -10 -4 -14 5 -16 3 -11 -13
6 -17 5 -17 -5 -2 -11 15 -14 14 -36 -10 -13 -15 -22 -22 -19 -16 4 6 0 11 -7
11 -8 0 -12 -7 -9 -14 3 -8 0 -13 -8 -11 -8 2 -13 -3 -11 -11 3 -12 0 -12 -12
-1 -9 7 -17 9 -17 4 -1 -5 -2 -15 -3 -23 0 -8 -8 -16 -16 -18 -13 -4 -13 -3 0
7 13 10 13 11 0 7 -8 -2 -14 -12 -14 -21 1 -10 -4 -15 -13 -14 -9 2 -17 -5
-18 -15 -2 -11 1 -15 8 -10 7 3 4 -3 -6 -14 -12 -14 -15 -23 -7 -28 5 -3 8
-10 5 -15 -3 -4 2 -11 11 -14 12 -4 15 -2 10 9 -4 12 -2 13 13 6 10 -6 22 -7
26 -3 5 4 5 2 2 -5 -4 -6 -1 -14 5 -16 10 -4 10 -6 0 -6 -10 -1 -10 -4 0 -15
7 -8 16 -12 20 -9 4 2 5 -3 2 -11 -4 -10 -1 -17 7 -18 24 -2 33 -5 59 -15 14
-6 29 -8 34 -5 5 3 7 -2 3 -11 -4 -11 -2 -14 7 -11 7 3 21 -7 30 -22 14 -21
15 -29 5 -38 -9 -8 -10 -8 -4 4 8 13 6 13 -8 2 -11 -9 -36 -13 -72 -10 -30 1
-55 -1 -55 -5 0 -4 -9 -3 -20 3 -14 8 -20 8 -20 0 0 -6 -4 -8 -10 -5 -6 4 -7
-1 -3 -11 5 -13 3 -15 -7 -9 -9 5 -11 4 -6 -4 4 -6 12 -9 17 -5 6 3 13 -3 16
-15 3 -12 9 -21 14 -21 5 0 9 -8 10 -17 0 -15 2 -15 8 2 8 20 8 20 15 0 3 -12
20 -29 37 -39 18 -11 29 -14 25 -7 -4 6 -2 11 3 11 6 0 11 -9 11 -21 0 -11 5
-17 10 -14 6 4 7 11 4 17 -4 7 -2 8 5 4 6 -4 9 -12 6 -17 -6 -8 8 -13 28 -10
4 0 7 -5 7 -12 0 -9 2 -9 9 1 6 10 11 9 22 -4 12 -15 12 -17 0 -9 -9 5 -12 4
-8 -3 4 -5 16 -8 27 -5 11 3 20 1 20 -5 0 -15 55 -31 71 -22 7 5 19 5 25 -1 8
-7 14 -6 19 1 4 7 12 7 26 0 13 -8 25 -7 40 0 15 8 24 8 34 0 9 -8 15 -8 20 0
4 6 13 7 23 1 9 -4 25 -7 35 -6 14 3 16 0 7 -10 -9 -11 -8 -14 7 -14 36 -1 53
-4 53 -11 0 -8 55 -4 69 5 6 3 11 1 11 -5 0 -8 6 -8 20 0 14 8 20 8 20 0 0 -8
6 -8 20 0 14 8 20 8 20 0 0 -8 6 -8 20 0 14 8 20 8 20 0 0 -8 6 -8 20 0 14 8
20 8 20 0 0 -8 6 -8 20 0 14 8 20 8 20 0 0 -8 6 -8 20 0 14 8 20 8 20 0 0 -7
6 -8 19 0 14 7 22 7 26 0 5 -8 11 -8 19 -1 9 7 16 7 23 0 8 -8 13 -8 17 0 5 8
13 8 27 1 13 -8 19 -7 19 0 0 7 6 8 19 0 14 -7 21 -6 25 3 4 6 4 2 2 -10 -2
-12 1 -24 8 -27 6 -3 -10 -4 -36 -2 -27 1 -48 -2 -48 -7 0 -5 -7 -6 -16 -3 -8
3 -13 2 -10 -3 9 -13 45 -20 52 -9 3 5 12 1 21 -9 8 -10 12 -13 9 -7 -3 7 1
14 9 17 10 4 12 1 8 -11 -3 -9 -3 -14 2 -10 4 4 16 3 26 -2 12 -7 19 -6 21 1
2 7 16 0 33 -16 17 -14 25 -24 18 -21 -6 3 -13 3 -16 -1 -2 -5 -2 -1 0 7 2 11
-1 10 -11 -3 -13 -17 -11 -56 2 -43 3 3 11 1 19 -5 9 -8 13 -8 13 -1 0 6 7 9
15 6 8 -4 15 -1 15 6 0 9 4 9 13 2 8 -7 18 -6 32 4 10 8 28 11 38 8 13 -4 17
-2 12 6 -4 7 -1 11 6 9 26 -3 40 1 35 10 -4 5 4 7 16 3 15 -4 19 -2 13 7 -6
10 -3 11 12 3 12 -7 25 -7 36 -1 13 8 19 6 24 -7 7 -19 43 -58 43 -48 0 4 6 1
14 -5 10 -8 16 -9 21 -1 3 6 12 7 18 3 19 -12 41 -9 55 7 12 13 13 13 7 0 -4
-8 1 -6 9 4 12 15 16 16 16 5 0 -9 8 -5 20 11 12 15 20 19 20 11 0 -11 5 -9
22 5 12 10 18 13 14 6 -4 -6 -2 -12 3 -12 6 0 11 4 11 9 0 5 32 9 70 8 39 -1
70 2 70 6 0 4 8 3 19 -2 10 -6 20 -9 22 -8 2 1 -2 -4 -10 -10 -11 -9 -11 -13
-2 -13 7 0 9 -4 6 -10 -6 -9 8 -14 28 -11 4 0 7 -4 7 -9 0 -7 6 -7 20 0 12 6
20 7 20 1 0 -6 11 -6 29 -1 16 4 32 6 35 3 3 -3 13 0 22 8 9 7 29 12 45 11 20
-2 29 2 29 13 0 13 4 14 20 5 14 -8 20 -8 20 0 0 6 8 10 18 8 9 -2 23 3 30 12
10 12 12 13 10 0 -2 -8 3 -15 10 -16 6 -1 13 -2 15 -4 1 -1 13 -3 25 -4 13 -2
27 -7 30 -12 12 -17 52 -35 52 -24 0 7 6 7 20 0 13 -7 20 -7 20 -1 0 6 7 8 15
5 8 -4 15 -2 15 3 0 4 15 9 33 10 32 2 59 6 107 17 14 3 40 9 57 12 18 3 31 9
29 13 -2 3 18 6 45 5 33 0 50 4 54 14 4 11 8 12 19 3 10 -9 16 -9 21 -1 5 8
10 8 20 0 9 -8 15 -8 20 0 3 6 12 7 18 3 7 -4 14 -8 17 -8 36 -4 130 -31 130
-38 0 -6 5 -6 13 -1 15 11 38 11 54 1 7 -5 17 -6 22 -3 11 7 78 19 109 20 12
1 22 5 22 9 0 4 9 3 20 -3 16 -9 20 -8 20 6 0 13 3 14 15 4 12 -10 15 -10 15
0 0 8 10 11 30 8 17 -3 30 -1 30 4 0 4 11 8 25 8 14 0 25 5 25 10 0 6 8 10 18
10 10 0 23 5 30 12 9 9 12 9 12 0 0 -9 5 -10 18 -3 13 7 22 7 30 -1 5 -5 16
-7 23 -2 16 10 59 12 65 3 2 -4 20 -3 39 1 19 4 35 4 35 -1 0 -5 10 -5 23 -1
27 10 38 9 56 -2 10 -6 16 -5 19 2 3 9 9 9 23 2 13 -7 19 -7 19 0 0 5 3 9 8 9
30 -5 35 3 12 22 -14 12 -26 16 -28 10 -3 -8 -9 -8 -23 -1 -13 8 -19 7 -19 0
0 -6 -5 -8 -11 -4 -16 10 -108 10 -102 1 3 -5 -4 -4 -16 2 -14 8 -21 8 -21 1
0 -7 -7 -7 -21 1 -15 7 -19 8 -15 0 5 -7 1 -9 -8 -5 -9 3 -16 10 -16 16 0 5
-4 7 -9 4 -5 -4 -7 2 -4 12 3 13 13 18 31 17 15 -1 30 3 34 9 10 15 -34 34
-54 24 -10 -5 -18 -5 -18 0 0 4 -18 8 -40 7 -22 0 -40 -4 -40 -9 0 -5 -6 -3
-13 3 -8 6 -18 7 -23 3 -4 -4 -3 0 4 9 6 9 8 20 4 24 -4 5 -1 5 6 1 6 -4 12
-3 12 3 0 5 9 8 19 6 14 -3 18 1 14 11 -4 10 3 14 26 14 17 0 31 5 31 10 0 7
6 8 17 2 11 -7 21 -5 31 4 7 8 19 14 25 14 7 0 6 -4 -3 -10 -9 -6 -10 -10 -3
-10 6 0 15 5 19 11 3 6 15 9 25 6 11 -3 19 -1 19 4 0 6 8 5 20 -1 11 -6 20 -7
20 -2 0 5 17 6 40 2 26 -5 37 -4 33 3 -4 6 4 8 21 5 14 -3 26 -2 26 2 0 12 39
19 46 9 3 -5 11 -6 17 -2 7 4 20 6 30 5 9 -2 17 2 17 9 0 9 3 9 14 0 11 -10
17 -8 25 6 6 10 11 14 11 8 0 -5 5 -3 10 5 8 12 10 12 10 1 0 -9 7 -6 20 9 13
15 20 18 20 9 0 -12 2 -12 9 0 5 8 14 10 21 6 9 -5 11 -4 6 3 -5 8 1 12 18 12
14 0 28 5 32 11 5 8 9 8 14 -1 5 -8 11 -8 22 4 12 11 18 12 28 3 10 -9 11 -9
6 0 -3 6 -2 14 4 18 5 3 10 0 10 -7 0 -9 3 -10 8 -2 4 6 15 10 25 8 9 -1 15 2
11 7 -3 5 0 9 6 9 6 0 9 4 5 9 -3 6 4 8 15 6 11 -2 20 1 20 7 0 6 3 8 7 5 3
-4 13 -1 22 7 9 8 25 16 36 18 11 2 19 10 17 18 -3 11 0 11 12 0 13 -10 16
-10 16 4 0 11 7 16 18 14 9 -2 16 2 15 9 -2 7 6 10 17 8 12 -2 18 0 15 6 -4 5
1 9 9 9 9 0 16 5 16 11 0 5 -5 7 -12 3 -7 -4 -8 -3 -4 5 6 9 11 9 23 -1 12
-10 18 -9 29 7 10 14 14 15 14 4 0 -12 2 -12 10 1 5 8 10 11 10 5 0 -5 9 1 20
15 l19 25 -4 -24 c-2 -13 -1 -20 3 -17 7 7 8 11 11 37 0 5 6 7 12 3 8 -4 9 1
4 17 -7 20 -6 22 7 12 18 -16 39 2 30 25 -4 11 -1 14 10 9 21 -8 54 29 50 57
-2 17 -1 18 7 6 9 -13 11 -13 11 3 0 9 5 17 10 17 11 0 -8 40 -24 52 -5 3 -10
22 -10 42 -1 20 -4 36 -8 36 -8 0 -23 41 -20 54 2 5 -5 6 -14 2 -11 -4 -15 -2
-11 8 4 10 1 13 -7 10 -8 -3 -17 0 -22 7 -5 8 -3 10 6 4 9 -6 11 -4 6 4 -5 7
-10 10 -13 7 -9 -8 -63 23 -63 37 0 9 -3 8 -9 -1 -6 -11 -10 -10 -15 4 -6 16
-8 16 -16 4 -8 -12 -10 -12 -10 -1 0 8 -7 11 -20 8 -11 -3 -18 -1 -15 3 3 5 1
11 -5 15 -5 3 -10 0 -10 -7 -1 -8 -5 -7 -14 5 -8 10 -32 20 -57 23 -24 2 -50
7 -56 9 -7 2 -13 0 -13 -6 0 -6 -7 -6 -20 1 -11 6 -20 7 -20 1 0 -5 -14 -6
-34 -1 -19 4 -40 4 -47 -1 -8 -5 -22 -6 -33 -3 -13 5 -16 3 -11 -7 6 -9 3 -11
-8 -6 -10 4 -17 2 -17 -4 0 -6 -7 -8 -16 -5 -9 3 -25 0 -35 -8 -11 -8 -30 -11
-41 -8 -15 4 -19 2 -13 -7 5 -10 2 -11 -14 -6 -16 5 -21 2 -21 -11 0 -14 -2
-15 -17 -3 -11 10 -14 10 -9 2 4 -8 1 -13 -8 -13 -9 0 -16 -4 -16 -9 0 -5 -8
-12 -17 -16 -15 -5 -16 -4 -5 6 6 7 12 16 12 21 0 4 -11 -4 -25 -17 -13 -14
-33 -25 -43 -25 -15 0 -18 -5 -14 -25 2 -14 8 -25 12 -25 4 0 10 -9 13 -20 3
-11 1 -20 -4 -20 -5 0 -8 -6 -6 -12 1 -7 -4 -12 -10 -11 -7 2 -13 -2 -13 -7 0
-6 -7 -10 -15 -10 -8 0 -15 -6 -15 -12 -1 -7 -10 -2 -21 11 -12 14 -16 27 -10
30 6 4 6 12 1 21 -13 21 -12 33 2 24 6 -4 -1 9 -16 29 -30 39 -49 48 -40 20 4
-14 2 -14 -8 2 -15 23 -48 32 -48 13 -1 -8 -6 -5 -15 6 -15 20 -15 19 -15 -1
0 -21 -9 -20 -113 6 -5 1 -15 -5 -22 -15 -14 -20 -49 -29 -38 -11 5 9 3 9 -8
1 -8 -5 -20 -9 -26 -8 -7 1 -17 2 -23 3 -5 0 -10 6 -10 12 0 7 5 8 13 3 7 -5
5 -1 -6 8 -10 10 -15 23 -11 29 5 8 2 10 -8 6 -11 -4 -22 5 -34 29 -13 24 -24
34 -36 31 -10 -3 -17 -2 -16 2 1 3 -4 17 -10 31 -6 14 -11 21 -11 16 -1 -6 -8
-1 -17 10 -8 10 -13 13 -9 7 4 -8 1 -11 -9 -7 -9 3 -14 11 -13 17 1 8 -21 12
-65 13 -38 1 -68 -3 -68 -8 0 -5 -4 -7 -9 -4 -5 3 -15 -2 -22 -12 -13 -15 -12
-16 4 -3 10 8 17 9 17 3 0 -6 -9 -16 -21 -22 -11 -7 -18 -17 -16 -24 3 -7 -4
-13 -16 -13 -11 -1 -23 -7 -27 -14 -5 -7 -13 -3 -24 12 -9 13 -12 25 -7 27 12
4 -7 43 -26 55 -7 4 -11 13 -9 20 1 6 1 9 -1 5 -9 -15 -25 -8 -19 8 3 8 2 13
-2 11 -4 -3 -16 5 -27 16 -11 11 -14 17 -6 12 9 -5 9 -1 -3 16 -10 16 -12 29
-6 39 5 9 5 19 -2 27 -7 9 -7 13 1 13 7 0 10 4 7 9 -4 5 -4 16 0 24 4 11 13
13 40 7 20 -5 34 -4 34 1 0 6 9 5 20 -1 11 -6 20 -7 20 -2 0 5 18 6 40 2 22
-4 40 -3 40 2 0 5 9 4 20 -2 11 -6 20 -7 20 -3 0 4 48 8 107 8 86 0 107 3 110
15 4 13 3 13 -7 0 -10 -13 -11 -13 -7 0 2 8 11 15 20 15 9 0 22 6 29 14 10 10
10 12 1 7 -7 -4 -13 -3 -13 2 0 6 11 13 25 16 14 4 25 11 25 17 0 7 -6 6 -17
-2 -16 -13 -17 -12 -5 3 8 10 19 16 25 15 7 -1 11 4 9 12 -2 11 0 12 11 3 12
-10 14 -8 12 13 -2 14 1 23 6 19 5 -3 6 -10 3 -16 -4 -6 -2 -8 4 -4 6 3 9 16
7 27 -4 17 -2 19 10 9 12 -10 15 -9 15 5 0 11 5 15 15 11 9 -3 15 0 15 8 0 10
10 12 40 6 22 -4 40 -3 40 2 0 5 9 4 20 -2 11 -6 20 -7 20 -3 0 4 19 8 43 8
23 -1 48 5 56 12 10 11 16 11 27 2 12 -10 13 -9 8 5 -5 13 -2 17 12 14 13 -2
18 2 16 14 -1 9 3 20 9 24 7 4 9 3 6 -3 -4 -6 -1 -13 6 -16 9 -3 12 4 11 25
-2 24 0 27 12 17 14 -11 15 -10 18 14 1 6 8 12 17 11 9 -1 16 5 16 12 0 7 -5
10 -10 7 -6 -4 -7 -1 -3 6 5 7 14 10 21 7 8 -3 19 3 27 12 9 11 10 14 1 8 -18
-10 -16 2 2 20 9 9 15 11 15 4 0 -6 5 -8 10 -5 6 4 8 10 5 15 -3 4 2 13 10 20
13 11 14 10 9 -6 -5 -15 -4 -16 4 -4 8 10 7 18 0 28 -8 9 -8 12 -1 10 6 -2 12
2 13 7 1 6 6 15 12 22 5 7 6 18 2 25 -5 8 -1 8 11 -2 17 -14 18 -14 7 7 -11
19 -10 21 7 18 14 -3 18 1 14 11 -3 9 1 14 11 14 14 0 15 4 5 21 -8 15 -8 19
0 15 6 -4 14 1 18 11 4 10 17 26 30 37 20 15 22 21 11 34 -10 12 -10 14 0 8 7
-4 12 -2 12 4 0 6 5 8 12 4 8 -5 9 -2 5 9 -3 10 -2 17 4 17 6 0 7 5 4 11 -4 6
3 13 16 16 22 6 22 7 3 14 -17 7 -17 8 -1 8 11 1 15 5 11 13 -5 7 -2 9 7 6 12
-5 15 2 14 26 -1 17 1 35 4 40 6 14 5 70 -2 89 -4 10 -1 17 6 17 8 0 6 4 -3
10 -8 5 -11 10 -7 10 5 0 0 16 -12 36 -24 40 -27 59 -8 48 9 -6 9 -4 -1 8 -10
13 -9 16 8 21 11 3 20 9 19 14 -3 20 2 25 16 13 12 -10 14 -8 10 9 -3 14 3 24
18 32 21 10 21 10 3 -5 -11 -9 -15 -16 -9 -16 20 0 34 25 21 38 -9 9 -6 11 10
7 13 -2 21 1 19 8 -1 7 6 11 16 11 13 -2 15 1 7 11 -7 9 -6 16 5 25 9 7 18 10
22 6 10 -10 52 34 47 49 -3 7 0 16 7 21 8 5 10 3 4 -7 -7 -11 -6 -12 7 -2 8 7
19 9 24 5 4 -4 2 1 -5 11 -12 15 -12 17 0 13 8 -3 22 8 34 27 12 19 29 32 43
33 12 1 29 7 39 15 9 8 14 9 10 3 -4 -7 -1 -14 7 -17 10 -4 13 1 11 19 -2 19
0 22 11 13 10 -8 14 -8 14 0 0 6 6 11 14 11 7 0 16 10 19 21 4 14 11 20 20 16
9 -3 23 3 33 14 9 10 14 19 9 19 -4 0 -14 -8 -22 -17 -13 -16 -13 -15 0 7 8
14 18 23 21 20 10 -7 29 28 22 39 -3 5 1 12 9 15 13 4 14 10 5 26 -6 11 -7 20
-3 21 4 0 -1 4 -12 9 l-20 9 20 1 c16 1 14 4 -10 15 -16 7 -24 14 -17 14 7 1
10 6 7 11 -5 8 -11 7 -21 -1 -12 -10 -13 -9 -8 4 3 9 -1 24 -10 32 -19 19 -22
5 -3 -14 7 -8 1 -7 -13 2 -33 21 -104 13 -95 -11 4 -12 3 -13 -10 -2 -8 7 -15
9 -15 4 0 -4 -7 1 -16 12 -8 10 -13 12 -9 4 4 -8 -1 -6 -10 5 -9 11 -23 19
-30 17 -8 -1 -25 4 -37 12 -13 7 -31 12 -40 11 -10 -2 -18 2 -18 8 0 5 -3 8
-6 4 -3 -3 -14 3 -25 14 -10 10 -25 16 -34 13 -8 -4 -15 -1 -15 6 0 6 -4 8
-10 5 -5 -3 -10 -1 -10 5 0 7 -9 9 -22 5 -18 -5 -20 -4 -8 4 13 9 8 15 -12 13
-3 -1 -9 5 -12 14 -4 10 -1 13 7 9 6 -4 2 2 -11 14 -13 12 -18 22 -12 26 6 3
7 12 3 18 -11 18 -3 71 13 80 8 4 14 16 14 26 0 11 14 25 33 35 17 8 26 16 20
16 -7 0 -13 4 -13 9 0 5 10 8 23 7 25 -3 25 -1 28 91 1 20 5 30 12 26 6 -4 8
0 5 8 -3 8 -2 23 2 34 4 11 4 28 -1 37 -6 10 -5 19 1 23 8 5 8 11 0 20 -8 10
-8 15 0 20 8 5 8 11 -1 21 -9 11 -8 15 3 19 9 4 14 16 12 31 -1 13 2 24 7 24
6 0 5 8 -1 20 -8 14 -8 20 0 20 8 0 8 6 0 20 -8 14 -8 20 0 20 8 0 8 6 0 20
-8 14 -8 20 0 20 8 0 8 6 0 20 -8 14 -8 20 0 20 8 0 8 6 0 20 -8 14 -8 20 0
20 8 0 8 6 0 20 -8 15 -8 20 2 20 9 0 9 3 0 12 -8 8 -8 17 -1 30 8 14 6 20 -6
25 -13 4 -14 8 -4 14 9 5 2 14 -22 29 -19 12 -26 20 -16 16 28 -9 19 13 -13
33 -16 10 -27 21 -22 26 4 4 -1 5 -11 2 -12 -5 -16 -3 -11 5 5 8 2 9 -11 4
-16 -6 -16 -4 -4 11 12 15 12 16 -3 10 -13 -4 -15 -2 -11 10 4 11 2 14 -5 9
-7 -4 -12 -2 -12 4 0 6 -4 9 -8 6 -4 -2 -14 5 -22 17 -11 19 -11 21 1 12 8 -5
7 -3 -3 6 -9 9 -14 19 -11 23 4 3 2 6 -4 6 -10 0 -9 47 1 57 3 4 1 12 -5 20
-8 9 -8 13 -1 13 7 0 8 10 3 28 -5 15 -7 35 -5 44 1 10 -3 21 -8 25 -7 3 -8 1
-4 -5 4 -7 5 -12 2 -12 -3 0 -10 9 -16 20 -9 17 -8 19 7 14 13 -5 11 -1 -5 10
-17 13 -20 21 -13 34 7 13 3 26 -17 52 -21 29 -22 32 -4 16 12 -11 25 -17 28
-14 3 4 -8 14 -25 24 -16 10 -27 22 -24 28 4 6 -1 7 -13 2 -15 -6 -16 -5 -7 5
9 9 8 20 -7 50 -11 21 -28 43 -37 48 -10 6 -13 11 -8 11 6 0 4 4 -2 8 -7 5
-14 20 -15 35 -1 15 -6 23 -11 18 -14 -14 -76 59 -69 82 1 4 -7 7 -19 7 -20 0
-67 47 -62 62 2 4 -5 4 -14 1 -11 -4 -14 -3 -9 5 4 7 2 12 -4 12 -6 0 -8 5 -4
12 5 8 2 9 -10 5 -13 -5 -17 -3 -13 7 4 9 -4 17 -21 21 -15 4 -21 10 -14 12 6
3 9 9 6 14 -4 6 -11 6 -19 -1 -11 -9 -12 -7 -8 9 4 15 1 21 -11 21 -9 0 -16 5
-16 12 0 6 -3 8 -6 5 -4 -3 -16 -1 -28 5 -11 7 -25 12 -31 13 -22 1 -55 17
-55 26 0 6 -4 8 -9 4 -5 -3 -12 -1 -16 5 -4 7 -12 7 -26 0 -13 -8 -19 -7 -19
0 0 8 -6 8 -20 0 -14 -8 -20 -8 -20 0 0 8 -6 8 -20 0 -14 -8 -20 -8 -20 0 0 8
-6 8 -20 0 -14 -8 -20 -8 -20 0 0 7 -6 8 -19 0 -14 -7 -22 -7 -26 0 -4 6 -9 9
-13 7 -4 -2 -15 4 -24 15 -10 10 -15 18 -12 18 4 0 2 6 -4 13 -7 8 -7 18 -2
27 5 8 3 26 -5 46 -7 18 -11 35 -9 38 2 3 1 4 -2 2 -12 -8 -55 47 -49 62 3 9
3 13 -1 9 -4 -4 -13 1 -21 11 -8 9 -12 11 -8 5 4 -9 1 -11 -9 -7 -9 3 -13 10
-10 15 3 5 0 9 -6 9 -6 0 -8 5 -4 12 5 8 2 9 -10 5 -13 -5 -17 -3 -13 7 4 9
-3 16 -21 21 -21 5 -23 8 -11 17 11 8 10 9 -7 5 -13 -3 -21 1 -21 9 0 7 5 10
10 7 6 -4 7 -1 3 6 -5 7 -14 10 -21 7 -13 -5 -35 12 -35 27 0 4 6 5 13 2 6 -4
1 3 -13 14 -14 11 -30 21 -37 21 -7 0 -17 8 -22 18 -8 13 -10 14 -11 2 0 -13
-1 -13 -10 0 -5 8 -10 11 -10 5 0 -5 -5 -3 -10 5 -8 12 -10 12 -10 1 0 -11 -3
-11 -15 -1 -12 10 -15 10 -15 -3z m374 -323 c3 -8 2 -12 -4 -9 -6 3 -10 10
-10 16 0 14 7 11 14 -7z m-1224 -164 c0 -5 -5 -10 -11 -10 -5 0 -7 5 -4 10 3
6 8 10 11 10 2 0 4 -4 4 -10z m1988 -415 c-3 -3 -9 2 -12 12 -6 14 -5 15 5 6
7 -7 10 -15 7 -18z m277 -593 c-3 -3 -11 0 -18 7 -9 10 -8 11 6 5 10 -3 15 -9
12 -12z m30 -1050 c-3 -3 -11 0 -18 7 -9 10 -8 11 6 5 10 -3 15 -9 12 -12z
m-3291 -164 c-6 -10 -4 -10 7 0 19 18 32 15 26 -7 -2 -10 -1 -25 4 -32 4 -8 3
-19 -3 -26 -8 -9 -7 -13 2 -13 8 0 10 -3 7 -6 -9 -9 44 -54 55 -48 4 3 8 -3 8
-13 0 -15 2 -16 11 -3 9 12 10 10 6 -8 -4 -19 -3 -21 8 -12 11 9 12 7 8 -10
-3 -12 -2 -25 3 -29 5 -3 18 -17 29 -31 16 -20 16 -22 2 -11 -15 12 -17 12
-11 -3 3 -9 17 -19 30 -22 13 -3 21 -11 18 -16 -4 -6 3 -5 15 1 19 11 25 8 22
-11 0 -4 9 -13 22 -19 19 -10 20 -10 12 2 -5 8 -3 7 6 -2 11 -12 20 -14 26 -8
7 7 16 5 26 -6 9 -9 19 -15 22 -15 3 1 11 -1 18 -3 7 -3 5 -6 -5 -6 -11 -1
-15 -6 -12 -15 3 -8 0 -23 -6 -33 -10 -16 -11 -16 -6 0 3 9 1 17 -4 17 -10 0
-14 -15 -11 -34 1 -5 -4 -4 -12 3 -12 9 -16 8 -20 -3 -4 -9 -15 -13 -26 -11
-13 2 -18 -1 -15 -9 3 -8 -2 -16 -11 -20 -9 -3 -14 -2 -11 2 3 5 -1 9 -8 9 -8
0 -11 -8 -8 -19 2 -10 -1 -18 -7 -18 -7 0 -9 5 -6 10 3 6 2 10 -3 10 -6 0 -12
-6 -15 -14 -4 -9 -14 -13 -29 -9 -18 4 -20 3 -8 -6 12 -9 11 -11 -7 -11 -16 0
-21 -5 -18 -20 2 -11 -1 -23 -7 -26 -6 -4 -8 -2 -4 4 3 6 2 13 -3 16 -5 3 -11
-3 -14 -14 -3 -11 -9 -20 -14 -19 -20 3 -27 -2 -13 -11 10 -6 11 -10 3 -10 -7
0 -13 -7 -13 -16 0 -9 -5 -12 -12 -8 -10 6 -10 5 -1 -7 6 -8 14 -26 17 -41 3
-20 0 -27 -15 -31 -10 -3 -22 -1 -25 4 -3 5 -10 7 -15 4 -5 -4 -9 -1 -9 5 0 6
-4 8 -10 5 -5 -3 -10 -1 -10 5 0 6 -4 8 -10 5 -5 -3 -10 -1 -10 5 0 6 -4 9 -9
5 -5 -3 -12 -1 -16 5 -4 6 -11 7 -17 4 -10 -6 -21 -8 -66 -13 -8 0 -10 -6 -6
-13 5 -9 2 -8 -9 1 -15 12 -17 12 -12 0 3 -10 -3 -14 -20 -15 -14 -1 -25 2
-25 6 0 5 -9 12 -20 15 -11 4 -18 11 -15 16 4 5 -1 9 -9 9 -9 0 -17 3 -17 8
-1 4 -3 23 -5 42 -2 19 -6 41 -9 48 -2 6 0 12 6 12 6 0 6 7 -1 20 -6 11 -7 20
-2 20 10 0 -4 105 -17 129 -5 8 -5 25 0 38 5 14 4 25 -2 29 -7 4 -7 10 0 18 6
7 8 15 5 19 -13 12 -10 67 3 67 11 0 11 4 2 21 -7 13 -7 19 -1 15 6 -3 14 -1
17 5 4 5 13 8 21 5 8 -3 14 0 14 7 0 7 10 13 23 13 41 3 62 12 59 25 -2 10 0
10 12 0 11 -9 16 -9 22 0 5 8 3 10 -7 4 -8 -4 0 5 16 21 18 18 33 25 37 19 5
-6 17 0 30 15 13 14 19 21 15 14 -5 -7 -3 -15 4 -20 8 -4 9 -3 5 4 -4 7 -3 12
2 12 5 0 12 9 15 20 3 11 8 20 12 20 3 0 3 -6 -1 -12z m3096 -67 c14 -13 17
-19 7 -11 -15 11 -17 11 -11 -4 3 -9 9 -16 13 -16 4 0 7 -8 7 -19 0 -12 -5
-17 -15 -13 -8 3 -12 1 -8 -5 3 -5 0 -10 -8 -10 -8 0 -12 4 -9 9 8 13 -10 10
-25 -4 -11 -10 -13 -10 -7 0 4 6 3 12 -3 12 -5 0 -22 5 -38 12 -15 6 -35 10
-43 9 -9 -1 -16 8 -16 23 -1 19 2 24 17 21 16 -3 17 -1 10 14 -7 13 -6 18 4
18 8 0 11 -5 8 -11 -3 -6 2 -4 12 6 22 20 67 7 105 -31z m-3733 -137 c-3 -3
-12 -4 -19 -1 -8 3 -5 6 6 6 11 1 17 -2 13 -5z m3977 -133 c-10 -10 -21 -16
-24 -14 -3 3 4 11 14 19 28 20 33 17 10 -5z m-194 -253 c0 -6 -6 -5 -15 2 -8
7 -15 14 -15 16 0 2 7 1 15 -2 8 -4 15 -11 15 -16z m-70 -363 c-7 -8 -17 -15
-23 -15 -6 0 -2 7 9 15 25 19 30 19 14 0z m-3360 -355 c0 -5 -5 -10 -11 -10
-5 0 -7 5 -4 10 3 6 8 10 11 10 2 0 4 -4 4 -10z m1477 -242 c25 14 35 13 57
-6 11 -9 16 -12 13 -5 -5 8 7 8 43 -2 29 -8 50 -9 50 -4 0 6 8 5 20 -1 14 -8
20 -8 20 0 0 6 4 9 8 6 5 -3 27 -6 50 -7 27 -2 42 -8 42 -16 0 -7 4 -13 9 -13
5 0 9 -10 9 -22 2 -32 6 -51 16 -67 6 -10 5 -12 -2 -7 -8 5 -10 2 -6 -8 3 -9
10 -16 16 -16 5 0 6 -4 3 -10 -3 -5 -1 -10 6 -10 8 0 7 -5 -2 -17 -8 -9 -9
-14 -3 -10 7 4 14 -2 17 -13 3 -11 1 -20 -4 -20 -5 0 -9 -9 -9 -20 0 -11 -7
-23 -15 -26 -8 -4 -12 -10 -9 -15 2 -5 0 -18 -7 -30 -9 -17 -8 -20 2 -14 9 6
11 2 6 -14 -5 -19 -2 -22 14 -18 17 5 18 3 7 -11 -11 -14 -10 -15 7 -9 17 6
18 5 4 -5 -9 -7 -14 -19 -11 -27 3 -8 0 -11 -6 -7 -5 3 -13 -1 -16 -10 -3 -9
-13 -14 -21 -11 -9 4 -12 1 -8 -9 3 -9 0 -14 -6 -12 -17 4 -40 -66 -29 -86 5
-9 10 -31 12 -49 2 -19 6 -39 10 -45 3 -6 2 -13 -2 -16 -5 -3 -7 -16 -5 -29 3
-13 -2 -30 -10 -39 -10 -10 -12 -19 -5 -31 6 -11 5 -17 -2 -17 -8 0 -8 -6 0
-20 8 -15 8 -20 -2 -21 -10 0 -10 -2 -1 -6 9 -3 10 -10 3 -23 -7 -13 -6 -19 5
-24 8 -3 12 -12 9 -21 -4 -8 2 -27 11 -41 9 -15 13 -24 8 -21 -5 4 -10 0 -10
-7 0 -8 8 -11 19 -8 13 3 17 0 12 -11 -3 -8 0 -18 7 -23 8 -4 10 -3 5 4 -5 8
-1 10 9 5 11 -4 13 -8 5 -13 -6 -4 -8 -15 -4 -25 6 -14 4 -16 -7 -10 -12 8
-12 6 0 -8 9 -12 10 -17 2 -17 -7 0 -9 -4 -6 -10 3 -5 1 -10 -5 -10 -8 0 -7
-6 1 -21 6 -12 14 -17 18 -12 3 6 14 9 24 7 9 -1 17 4 17 12 0 9 4 13 8 10 5
-3 9 11 10 30 1 19 4 39 7 43 2 5 -3 15 -13 22 -16 13 -16 13 -2 -6 14 -19 14
-19 -3 -6 -9 7 -16 21 -15 29 2 9 -8 22 -22 29 -22 11 -23 13 -5 14 17 1 17 2
3 6 -15 4 -23 16 -16 26 1 1 -4 12 -11 25 -7 12 -8 22 -2 22 6 0 6 11 1 30 -5
17 -5 30 -1 30 4 0 6 14 3 30 -2 17 2 38 9 47 8 10 9 14 2 10 -8 -5 -11 -1
-10 12 1 15 4 17 14 9 10 -8 13 -5 13 11 0 11 5 21 11 21 5 0 7 5 4 10 -9 15
2 12 19 -6 9 -8 16 -11 16 -5 0 6 4 11 10 11 5 0 6 -7 3 -17 -4 -10 -2 -14 4
-10 6 4 14 0 17 -9 3 -8 10 -13 15 -10 4 3 7 -6 5 -19 -1 -14 2 -25 7 -25 6 0
8 -4 5 -8 -3 -5 -7 -19 -10 -33 -2 -13 -8 -33 -12 -43 -5 -14 -4 -17 5 -12 10
6 10 4 0 -12 -7 -12 -18 -18 -24 -14 -5 3 -4 -2 4 -11 12 -15 12 -17 0 -12
-10 4 -15 -2 -16 -16 -1 -12 -8 -26 -15 -30 -9 -6 -9 -9 -1 -9 6 0 18 -6 25
-12 7 -7 25 -19 41 -27 15 -8 27 -21 27 -28 0 -8 5 -11 10 -8 9 6 14 -8 11
-28 -1 -4 7 -3 18 2 10 6 21 8 24 5 8 -9 167 -10 167 -2 0 4 10 4 23 -1 12 -5
31 -5 43 -1 15 6 24 3 32 -10 14 -22 7 -28 -30 -26 -16 1 -28 -2 -28 -6 0 -4
-12 -3 -26 2 -14 6 -23 6 -20 1 3 -5 -1 -11 -9 -15 -8 -3 -15 0 -15 6 0 7 -6
4 -13 -6 -11 -15 -17 -16 -35 -7 -14 8 -23 8 -27 1 -5 -8 -11 -8 -20 0 -9 8
-17 7 -26 -2 -8 -8 -24 -13 -36 -12 -12 1 -20 -2 -18 -6 2 -4 -7 -12 -20 -18
-19 -9 -25 -9 -25 1 0 6 -9 1 -20 -13 -11 -14 -20 -21 -20 -17 0 4 -9 3 -20
-3 -11 -6 -17 -16 -14 -22 5 -7 0 -9 -14 -6 -12 4 -22 2 -22 -3 0 -6 -8 -5
-20 1 -11 6 -20 7 -20 2 0 -4 -15 -6 -34 -4 -18 2 -43 -1 -55 -7 -16 -9 -21
-9 -21 1 0 6 -6 3 -14 -7 -11 -16 -17 -17 -29 -7 -11 9 -17 10 -22 2 -5 -8
-10 -8 -20 0 -9 8 -15 8 -20 0 -4 -7 -12 -7 -25 0 -25 13 -33 13 -24 -2 4 -7
3 -8 -5 -4 -6 4 -9 12 -6 17 4 5 -2 12 -12 15 -10 3 -26 10 -35 15 -12 6 -18
6 -18 -1 0 -7 -6 -7 -20 0 -14 8 -20 8 -20 0 0 -8 -6 -8 -20 0 -14 7 -20 7
-20 0 0 -6 -7 -6 -19 2 -11 7 -17 17 -13 23 3 5 -3 3 -13 -5 -11 -9 -16 -10
-11 -2 4 6 3 12 -2 12 -6 0 -9 11 -8 24 1 18 4 22 13 14 9 -7 11 -4 8 12 -4
19 -2 20 12 8 15 -12 15 -11 4 10 -10 18 -9 22 3 22 7 0 16 7 19 14 4 11 1 13
-11 9 -10 -3 -8 1 6 12 13 9 21 23 18 31 -3 9 0 11 12 7 15 -6 15 -5 3 10 -9
12 -10 17 -2 17 9 0 9 5 1 20 -7 13 -7 20 -1 20 7 0 7 9 1 26 -6 14 -8 29 -5
34 3 4 -4 10 -15 13 -13 3 -18 10 -14 21 4 11 0 16 -12 17 -17 1 -17 2 -1 6
16 4 15 6 -5 25 -19 17 -20 19 -4 14 16 -6 17 -4 6 9 -8 10 -9 19 -2 28 9 11
14 38 26 132 2 17 -2 36 -8 44 -8 11 -8 13 1 7 9 -5 11 -2 7 8 -3 9 -10 13
-15 10 -5 -3 -9 0 -9 6 0 6 -5 8 -12 4 -8 -5 -9 -2 -5 10 5 11 3 15 -5 10 -8
-5 -9 -2 -4 11 6 16 4 16 -11 4 -15 -12 -16 -12 -10 3 4 13 1 16 -14 13 -11
-2 -17 0 -14 5 3 4 2 10 -2 13 -5 2 -2 2 5 1 6 -2 12 1 12 6 0 6 -8 10 -17 11
-10 0 -13 3 -6 5 7 3 9 12 6 21 -5 12 -3 14 8 8 12 -8 12 -6 1 8 -12 14 -11
16 7 12 12 -2 19 0 16 6 -6 8 8 13 28 10 4 -1 3 8 -3 19 -9 16 -8 20 5 20 13
0 14 4 5 20 -6 11 -8 25 -5 30 3 5 -4 20 -16 32 l-23 23 17 -27 c10 -16 15
-28 12 -28 -10 0 -36 49 -41 76 -3 22 -2 25 6 14 9 -13 10 -13 11 0 1 8 1 19
0 24 -1 5 6 3 16 -4 10 -8 15 -11 11 -6 -4 5 -3 18 3 29 8 13 8 17 0 13 -5 -4
-4 6 4 21 18 34 19 46 3 38 -7 -4 -2 3 12 14 17 14 20 21 10 21 -12 0 -13 2
-1 9 8 5 10 14 6 21 -5 9 -4 11 3 6 7 -4 12 -3 12 3 0 5 9 8 20 6 11 -2 22 1
26 6 4 6 11 6 19 -1 9 -8 20 -8 32 -2z m1523 -493 c14 -19 14 -19 -2 -6 -10 7
-18 18 -18 24 0 6 1 8 3 6 1 -2 9 -13 17 -24z m-2960 -165 c0 -5 -5 -10 -11
-10 -5 0 -7 5 -4 10 3 6 8 10 11 10 2 0 4 -4 4 -10z m3893 -60 c-10 -11 -19
-20 -21 -20 -1 0 2 9 8 20 6 11 15 20 20 20 6 0 2 -9 -7 -20z"/>
<path d="M4630 5311 c0 -6 4 -13 10 -16 6 -3 7 1 4 9 -7 18 -14 21 -14 7z"/>
<path d="M4949 3773 c-13 -16 -12 -17 4 -4 16 13 21 21 13 21 -2 0 -10 -8 -17
-17z"/>
<path d="M5190 3115 c-7 -9 -8 -15 -2 -15 5 0 12 7 16 15 3 8 4 15 2 15 -2 0
-9 -7 -16 -15z"/>
<path d="M5035 2970 c-3 -5 -1 -10 4 -10 6 0 11 5 11 10 0 6 -2 10 -4 10 -3 0
-8 -4 -11 -10z"/>
<path d="M4180 1339 c0 -5 5 -7 10 -4 6 3 10 8 10 11 0 2 -4 4 -10 4 -5 0 -10
-5 -10 -11z"/>
</g>
</svg>
